<?xml version="1.0" encoding="UTF-8"?>
<svg xmlns="http://www.w3.org/2000/svg" viewBox="0 0 559.22 549.57">
  <style>
    :root { --color-text: #000; }
    @media (prefers-color-scheme: dark) {
      :root { --color-text: #fff; }
    }
  </style>
  <g id="dark">
    <path
      d="M357.69,495.39c-7.74,15.26-18.91,27.71-32.54,37.98-.52.39-1.14.7-1.76.92-.45.16-.97.1-1.71.16-2.4-4.79.61-10.53-2.32-15.52-3.43,1.77-4.86,4.91-6.9,7.42-8.29,10.2-18.9,17.18-30.64,22.7-2.1.99-3.77.41-5.66-.45-13.2-6.01-23.65-15.37-32.69-26.51-1-1.24-1.5-3.04-3.73-3.38-3.32,4.77-.11,10.72-2.36,15.6-2.32.38-3.75-.89-5.13-2.02-12.63-10.34-23.48-22.17-30.93-36.86-3.21-6.32-2.32-8.22,4.37-9.75,13.94-3.2,28.2-4.99,41.96-8.99,8.67-2.52,17.03-5.83,24.6-10.83,4.65-3.07,8.91-3.33,13.83-.26,10.1,6.3,21.09,10.62,32.74,13.16,11.88,2.45,22.96,4.69,34.01,7.07,7.02,1.51,8.07,3.19,4.84,9.56h.02ZM552.24,337.1c-9.24,5.93-17.91,12.75-26.74,19.3-1.79,1.33-4.14,2.17-5.12,4.74,4.05,1.64,8.22,1.33,12.29,1.73,2.28.22,5.05.33,5.97,2.86,1,2.75-1.6,4.05-3.25,5.6-26.25,24.46-55.31,44.91-87.4,61.01-3.64,1.83-7.22,3.92-12.09,4.39,1.81-8.04,3.85-15.57,4.39-23.35.09-1.33.62-2.69.42-3.96-1.38-8.67,2.53-14.61,8.76-20.29,9.12-8.3,16.76-18.06,23.99-28.07,1.72-2.38,3.46-4.74,6.68-7.21-.22,11.05-4.13,20.58-4.77,31.04,4.66-1.51,7.77-4.18,10.71-7.09,14.04-13.86,21.57-31.04,25.1-50.11,5.49-29.71,5.19-59.29-3.42-88.45-4.6-15.59-11.28-30.26-21.41-43.16-2.88-3.67-3.35-4.11-7.25-5.79,1.74,6.8,3.57,13.13,4.97,19.55,4.23,19.44,6.24,39.13,5,59.01-1.35,21.67-5.11,42.84-18.85,60.56-11.39,14.7-25.96,25.27-44.25,29.98-6.45,1.66-12.87.96-19.15-1.31-2.13-.77-4.13-2.18-6.99-1.78.25,2.8,1.86,4.94,3.05,7.19,3.05,5.78,5.19,11.9,6.98,18.15,1.12,3.9.09,6.87-3.12,9.69-9.38,8.22-20.26,13.98-31.13,19.81-1.42.76-3.14,1.15-4.48,3.43,7.17,2.23,14.04,1.04,20.96.3,7.12-.77,13.66-3.69,20.49-5.68,1.59,8.49-.22,12.44-7.18,15.46-7.23,3.14-14.95,4.48-22.72,5.56-3.02.42-6.3.21-9.54,2.91,9.61,6.03,20.33,5.31,30.29,7.12.58,2.15-.6,3.49-1.53,4.77-9.52,13.06-21.43,21.2-38.51,21.27-25.61.11-48.09-9.27-69.92-21.17-2.42-1.32-3.55-3.58-3.57-6.2-.06-6.48-.33-12.95.42-19.46.47-4.02,2.38-6.06,5.62-8,9.57-5.75,18.92-11.89,27.36-19.24,8.82-7.67,15.67-16.45,14.52-29.17-.17-1.84-.15-3.68-.85-4.36-38.38,10.98-75.99,10.9-114.5.04-3.3,7.78-.96,15.59,4,22.83,6.34,9.26,15.44,15.54,24.57,21.7,4.83,3.26,9.74,6.42,14.72,9.44,2.27,1.38,3.27,3.27,3.3,5.75.09,6.49.81,12.98.12,19.48-.31,2.95-1.04,5.49-3.87,7.09-22.3,12.64-45.48,22.12-71.84,21.11-15.9-.61-32.41-11.31-38.13-25.76,10.34-1.64,21.17-1.19,31.16-7.57-5.79-2.88-11.34-2.61-16.57-3.63-6.23-1.22-12.39-2.54-18.03-5.61-1.77-.96-3.59-1.97-4.47-3.86-1.34-2.88-3.02-6.32-1.03-8.99,1.92-2.58,4.9-.07,7.3.68,9.43,2.95,18.97,5.11,28.94,4.39,1.88-.14,4.05.48,5.42-1.64-.81-1.97-2.75-2.31-4.32-3.12-10.81-5.61-21.28-11.73-30.75-19.5-3.88-3.18-5.03-6.49-3.32-11.32,2.05-5.81,3.9-11.67,6.8-17.15,1.14-2.16,2.61-4.26,2.73-6.81-1.03-1.01-2.01-.34-2.82.06-13.45,6.69-26.12,3.97-38.64-2.81-27.37-14.83-41.58-38.35-45.97-68.57-4.43-30.5-1.48-60.37,7.21-89.81.44-1.5,1.53-2.99.37-4.99-2.37,1.1-3.92,3-5.49,4.88-14.36,17.23-22.16,37.47-26.24,59.17-6.03,32.12-5.14,63.95,6.45,94.88,5.26,14.02,14.07,25.63,26.18,34.6.78.58,1.53,1.34,3.34.87.05-9.98-4.57-19.53-4.52-30.42,3.16,2.06,4.53,4.59,6.16,6.75,8.93,11.88,18.71,23.01,29.36,33.37,1.97,1.91,3.56,3.88,3.51,6.86-.15,11.07,1.54,21.87,4.69,32.47.23.77.17,1.62.25,2.44-2.05,1.4-3.64.04-5.17-.68-34.98-16.44-66.28-38.28-94.52-64.58-1.47-1.37-3.17-2.87-2.38-5.1.85-2.38,3.17-2.66,5.38-2.84,4.07-.32,8.25.43,12.24-.95.25-2.37-1.5-3.05-2.75-3.96-10.33-7.61-20.57-15.34-31.1-22.66-4.05-2.81-5.04-6.4-4.67-10.74,1.71-20.26,5.42-40.16,10.74-59.79,10.52-38.81,27.27-74.67,50.57-107.44,2.05-2.88,2.06-4.79-.53-7.22-17.86-16.71-25.33-38.19-28.15-61.78-1.49-12.46-1.44-24.9-.02-37.36,1.6-15.14,5.29-28.66,13.26-40.78C51.28,1.98,58.83-.79,68.32.48c15.5,2.08,29.19,9.1,42.95,15.72,22.25,10.7,43.7,22.83,63.33,37.94,2.15,1.66,4.02,2.31,6.79,1.19,35.81-14.53,73.18-19.17,111.57-17.77,28.38,1.03,55.8,6.44,82.22,16.8,4.11,1.61,7.03,1.41,10.83-1.44,28.45-21.32,59.6-37.72,92.97-49.95,5.05-1.85,10.34-2.79,15.65-2.96,11.48-.36,17.81,6.88,22.48,16.15,6.25,12.41,8.97,25.81,9.81,39.47,1.39,22.42.11,44.61-8.81,65.73-4.6,10.88-10.84,20.69-19.48,28.73-2.93,2.73-2.77,4.48-.65,7.46,27.61,38.82,45.83,81.72,55.49,128.32,2.47,11.9,4.09,23.92,5.56,35.97.78,6.43-.78,11.38-6.8,15.25h.01ZM90.48,137.07c10.7-16.16,22.4-31.5,36.82-44.54,3.62-3.28,3.33-6.01.46-9.25-16.93-19.13-36.31-35.18-59.02-47.08-3.71-1.94-5.69-1.08-7.27,2.69-4.55,10.85-7.08,22.14-7.8,33.85-1.37,22.4,3.75,42.63,20.06,59.45,2.51,2.22,4.72,4.25,7.05,6.14,5.61,4.54,5.81,4.63,9.71-1.25h-.01ZM158.48,325.72c-.52-2.49-2.06-3.03-3.25-3.84-12.59-8.55-22.73-19.39-30.75-32.32-13.33-21.52-21.32-44.98-25.71-69.79-.45-2.57-.25-5.5-2.48-7.73-1.58,1.66-1.62,3.58-1.98,5.29-3.24,15.36-4.56,30.89-4.17,46.58.69,28.07,10.62,49.95,39.52,59.17.47.15.93.37,1.78.65,9.15,1.97,17.79,6.55,27.05,1.98h0ZM206.49,234.38c-20.78-19.27-46.24-24.47-73.76-21.67-2.38.24-5.04.13-7.09,1.98.37,2.15,2.21,2.89,3.68,3.82,4.08,2.58,8.19,5.12,12.44,7.39,2.89,1.55,4.23,3.44,4.66,6.89,2.22,17.79,11.56,29.74,29.8,34.4,10.54,2.26,19.73-1.17,28.83-5.31,7.54,13.47,8.97,28.3,13.28,43.59,1.19-2.22,1.65-2.9,1.94-3.65,8.82-22.68,4.14-50.83-13.79-67.45h0ZM262.02,104.73c-14.91,6.89-30.02,12-45.17,17-5.07,1.67-9.96,3.88-14.51,6.66-11.37,6.96-21.54,15.17-26.91,27.92-.78,1.87-2.07,3.93.11,6.29,15.75-6.01,31.57-12.05,47.73-18.25,4.33-2.22,8.47-4.05,12.29-6.39,9.79-5.98,18.29-13.38,23.99-23.54,1.55-2.76,3.28-5.61,2.47-9.69h0ZM267.94,64.36c-22.44,3.9-44.35,9.67-65.22,20.2-13.53,7.75-26.66,15.41-32.23,31.48,2.96.71,4.59-.27,6.28-.79,6.05-1.84,12.11-3.64,18.13-5.56,15.99-5.08,32.57-8.47,47.37-16.94,9.81-5.61,18.81-12.04,24.57-22.09,1.01-1.75,2.79-3.48,1.09-6.32v.02h.01ZM290.28,66.03c1.79,5.46,5.33,10.14,9.68,14.29,9.96,9.49,21.86,15.81,34.73,20.13,14.02,4.71,28.28,8.72,42.81,13.15,3.55.92,6.48,2.69,10.2,2.63.58-3.54-1.22-6.22-2.9-8.79-5.79-8.9-14.26-14.86-23.2-20.08-21.16-12.36-44.58-18.09-68.36-22.64-.96-.18-2.01-.3-2.98,1.31h.02ZM329.98,141.5c14.72,7.53,30.8,11.61,46.29,18.25,2.82.91,5.02,2.69,8.31,2.19-.13-4.91-2.22-8.96-4.86-12.75-10.04-14.39-24.05-23.23-40.48-28.49-13.16-4.22-26.2-8.74-38.79-14.47-1.12-.51-2.28-1.53-4.02-.5-.02,3.13,1.49,5.86,3.07,8.53,7.29,12.29,17.94,20.82,30.48,27.23h0ZM411.86,236.15c1.27-7.39,4.6-10.97,10.75-13.6,2.87-1.23,5.47-3.16,8.09-4.92,1.02-.68,2.34-1.42,1.95-3.18-.39-.25-.76-.62-1.21-.76-.95-.28-1.93-.51-2.92-.64-12.15-1.72-24.29-1.7-36.22,1.25-19.76,4.88-37.39,13.26-48.48,31.54-6,9.89-8.82,20.74-9.42,32.69.63,9.1,1.74,17.64,5.74,26.36,1.98-2.82,2.19-5.15,2.59-7.37,1.94-10.66,4.53-21.12,8.66-31.18,1.53-3.73,3.3-4.87,7.1-2.83,4.41,2.37,9.13,4.04,14.24,4.27,19.94.92,35.59-11.04,39.13-31.63h0ZM468.71,250.48c-.63-13.01-1.38-25.5-5.95-37.68-9.11,43.93-22.42,85.32-62.42,112.24,4.13,2.68,7.88,2.93,11.71,2.45,12.09-1.51,23.14-5.95,33.5-12.18,9.05-5.45,15.09-13.25,18.27-23.44,4.18-13.37,4.91-27.08,4.89-41.4h0ZM501.77,105.09c6.19-22.6,3.9-44.73-4.13-66.5-1.41-3.83-3.47-4.23-6.85-2.44-9.45,4.98-18.39,10.72-27.16,17.42-12.07,9.24-23.12,19.05-32.52,30.61-2.13,2.61-3.14,4.83-.02,7.63,15.46,13.9,28.14,30.12,39.26,47.6,1.47,2.3,2.87,2.96,5.18,1.15,12-9.42,22.09-20.32,26.23-35.46h0Z"
      style="fill: var(--color-text)"
    />
  </g>
</svg>
